ffmpeg started on 2025-06-21 at 12:32:18
Report written to "D:\Convert\FFMetrics\reports\ssim_report-6.txt"
Log level: 32
Command line:
ffmpeg -hide_banner -nostdin -i "G:\\\xc0\xed\xe8\xec\xe5\\[\xd2\xee\xef-4]\\\xc4\xe5\xf0\xe6\xe0\xf1\xfc \xc7\xe0 \xd0\xf3\xea\xe8\\Hand_Shakers_[04]_[AniLibria.TV]_[HDTV-Rip_720p]_HEVC.mkv" -i "G:\\\xc0\xed\xe8\xec\xe5\\[\xd2\xee\xef-4]\\\xc4\xe5\xf0\xe6\xe0\xf1\xfc \xc7\xe0 \xd0\xf3\xea\xe8\\Hand_Shakers_[04]_[AniLibria.TV]_[HDTV-Rip_720p].mkv" -lavfi "[0:v]settb=AVTB,setpts=PTS-STARTPTS,format=pix_fmts=yuv420p10,fps=30000/1001,scale=1280:720:flags=bicubic[main];[1:v]settb=AVTB,setpts=PTS-STARTPTS,format=pix_fmts=yuv420p,fps=30000/1001,scale=1280:720:flags=bicubic[ref];[main][ref]ssim=eof_action=endall:stats_file='D\\:/Convert/FFMetrics/logs/ssim_logfile-6.txt'" -f null -
Input #0, matroska,webm, from 'G:\Аниме\[Топ-4]\Держась За Руки\Hand_Shakers_[04]_[AniLibria.TV]_[HDTV-Rip_720p]_HEVC.mkv':
  Metadata:
    ENCODER         : Lavf61.7.100
  Duration: 00:23:59.91, start: -0.021000, bitrate: 2184 kb/s
  Stream #0:0(jpn): Video: hevc (Main 10), yuv420p10le(tv, bt709, progressive), 1280x720 [SAR 1:1 DAR 16:9], 29.97 fps, 29.97 tbr, 1k tbn (default)
      Metadata:
        ENCODER         : Lavc61.19.100 libx265
        BPS             : 1986219
        DURATION        : 00:23:59.771366664
        NUMBER_OF_FRAMES: 43150
        NUMBER_OF_BYTES : 357462743
        _STATISTICS_WRITING_APP: mkvpropedit v66.0.0 ('Josie') 64-bit
        _STATISTICS_WRITING_DATE_UTC: 2025-06-20 15:56:45
        _STATISTICS_TAGS: BPS DURATION NUMBER_OF_FRAMES NUMBER_OF_BYTES
  Stream #0:1(rus): Audio: aac (LC), 48000 Hz, stereo, fltp (default) (forced)
      Metadata:
        title           : Амикири и Анзен
        ENCODER         : Lavc61.19.100 aac
        BPS             : 194109
        DURATION        : 00:23:59.893000000
        NUMBER_OF_FRAMES: 67496
        NUMBER_OF_BYTES : 34937132
        _STATISTICS_WRITING_APP: mkvpropedit v66.0.0 ('Josie') 64-bit
        _STATISTICS_WRITING_DATE_UTC: 2025-06-20 15:56:45
        _STATISTICS_TAGS: BPS DURATION NUMBER_OF_FRAMES NUMBER_OF_BYTES
  Stream #0:2(rus): Subtitle: ass (ssa) (default) (forced)
      Metadata:
        title           : Надписи
        BPS             : 8
        DURATION        : 00:22:32.770000000
        NUMBER_OF_FRAMES: 11
        NUMBER_OF_BYTES : 1392
        _STATISTICS_WRITING_APP: mkvpropedit v66.0.0 ('Josie') 64-bit
        _STATISTICS_WRITING_DATE_UTC: 2025-06-20 15:56:45
        _STATISTICS_TAGS: BPS DURATION NUMBER_OF_FRAMES NUMBER_OF_BYTES
  Stream #0:3(rus): Subtitle: ass (ssa)
      Metadata:
        title           : Субтитры
        BPS             : 125
        DURATION        : 00:23:40.940000000
        NUMBER_OF_FRAMES: 321
        NUMBER_OF_BYTES : 22229
        _STATISTICS_WRITING_APP: mkvpropedit v66.0.0 ('Josie') 64-bit
        _STATISTICS_WRITING_DATE_UTC: 2025-06-20 15:56:45
        _STATISTICS_TAGS: BPS DURATION NUMBER_OF_FRAMES NUMBER_OF_BYTES
Input #1, matroska,webm, from 'G:\Аниме\[Топ-4]\Держась За Руки\Hand_Shakers_[04]_[AniLibria.TV]_[HDTV-Rip_720p].mkv':
  Metadata:
    encoder         : libebml v1.4.2 + libmatroska v1.6.4
    creation_time   : 2024-12-27T17:05:27.000000Z
  Duration: 00:23:59.89, start: 0.000000, bitrate: 5587 kb/s
  Stream #1:0(jpn): Video: h264 (High), yuv420p(tv, bt709, progressive), 1280x720 [SAR 1:1 DAR 16:9], 29.97 fps, 29.97 tbr, 1k tbn (default)
      Metadata:
        BPS             : 5393436
        DURATION        : 00:23:59.771000000
        NUMBER_OF_FRAMES: 43150
        NUMBER_OF_BYTES : 970664240
        _STATISTICS_WRITING_APP: mkvmerge v66.0.0 ('Josie') 64-bit
        _STATISTICS_WRITING_DATE_UTC: 2024-12-27 17:05:27
        _STATISTICS_TAGS: BPS DURATION NUMBER_OF_FRAMES NUMBER_OF_BYTES
  Stream #1:1(rus): Audio: aac (LC), 48000 Hz, stereo, fltp (default) (forced)
      Metadata:
        title           : Амикири и Анзен
        BPS             : 189375
        DURATION        : 00:23:59.893000000
        NUMBER_OF_FRAMES: 67495
        NUMBER_OF_BYTES : 34084975
        _STATISTICS_WRITING_APP: mkvmerge v66.0.0 ('Josie') 64-bit
        _STATISTICS_WRITING_DATE_UTC: 2024-12-27 17:05:27
        _STATISTICS_TAGS: BPS DURATION NUMBER_OF_FRAMES NUMBER_OF_BYTES
  Stream #1:2(rus): Subtitle: ass (ssa) (default) (forced)
      Metadata:
        title           : Надписи
        BPS             : 8
        DURATION        : 00:22:32.770000000
        NUMBER_OF_FRAMES: 11
        NUMBER_OF_BYTES : 1392
        _STATISTICS_WRITING_APP: mkvmerge v66.0.0 ('Josie') 64-bit
        _STATISTICS_WRITING_DATE_UTC: 2024-12-27 17:05:27
        _STATISTICS_TAGS: BPS DURATION NUMBER_OF_FRAMES NUMBER_OF_BYTES
  Stream #1:3(rus): Subtitle: ass (ssa)
      Metadata:
        title           : Субтитры
        BPS             : 125
        DURATION        : 00:23:40.940000000
        NUMBER_OF_FRAMES: 321
        NUMBER_OF_BYTES : 22229
        _STATISTICS_WRITING_APP: mkvmerge v66.0.0 ('Josie') 64-bit
        _STATISTICS_WRITING_DATE_UTC: 2024-12-27 17:05:27
        _STATISTICS_TAGS: BPS DURATION NUMBER_OF_FRAMES NUMBER_OF_BYTES
  Stream #1:4: Attachment: ttf
      Metadata:
        filename        : 8289.otf
        mimetype        : application/x-truetype-font
  Stream #1:5: Attachment: ttf
      Metadata:
        filename        : 8651.ttf
        mimetype        : application/x-truetype-font
  Stream #1:6: Attachment: ttf
      Metadata:
        filename        : 10200.ttf
        mimetype        : application/x-truetype-font
  Stream #1:7: Attachment: ttf
      Metadata:
        filename        : 10322.ttf
        mimetype        : application/x-truetype-font
Stream mapping:
  Stream #0:0 (hevc) -> settb:default
  Stream #1:0 (h264) -> settb:default
  ssim:default -> Stream #0:0 (wrapped_avframe)
  Stream #0:1 -> #0:1 (aac (native) -> pcm_s16le (native))
Output #0, null, to 'pipe:':
  Metadata:
    encoder         : Lavf61.7.100
  Stream #0:0: Video: wrapped_avframe, yuv420p10le(tv, bt709, progressive), 1280x720 [SAR 1:1 DAR 16:9], q=2-31, 200 kb/s, 29.97 fps, 29.97 tbn
      Metadata:
        encoder         : Lavc61.19.100 wrapped_avframe
  Stream #0:1(rus): Audio: pcm_s16le, 48000 Hz, stereo, s16, 1536 kb/s (default) (forced)
      Metadata:
        title           : Амикири и Анзен
        _STATISTICS_TAGS: BPS DURATION NUMBER_OF_FRAMES NUMBER_OF_BYTES
        BPS             : 194109
        DURATION        : 00:23:59.893000000
        NUMBER_OF_FRAMES: 67496
        NUMBER_OF_BYTES : 34937132
        _STATISTICS_WRITING_APP: mkvpropedit v66.0.0 ('Josie') 64-bit
        _STATISTICS_WRITING_DATE_UTC: 2025-06-20 15:56:45
        encoder         : Lavc61.19.100 pcm_s16le
frame=  290 fps=0.0 q=-0.0 size=N/A time=00:00:09.67 bitrate=N/A speed=18.9x    frame=  525 fps=507 q=-0.0 size=N/A time=00:00:17.51 bitrate=N/A speed=16.9x    frame=  873 fps=566 q=-0.0 size=N/A time=00:00:29.12 bitrate=N/A speed=18.9x    frame= 1207 fps=585 q=-0.0 size=N/A time=00:00:40.27 bitrate=N/A speed=19.5x    frame= 1525 fps=593 q=-0.0 size=N/A time=00:00:50.88 bitrate=N/A speed=19.8x    frame= 1919 fps=620 q=-0.0 size=N/A time=00:01:04.03 bitrate=N/A speed=20.7x    frame= 2179 fps=604 q=-0.0 size=N/A time=00:01:12.70 bitrate=N/A speed=20.2x    frame= 2466 fps=599 q=-0.0 size=N/A time=00:01:22.28 bitrate=N/A speed=  20x    frame= 2673 fps=576 q=-0.0 size=N/A time=00:01:29.18 bitrate=N/A speed=19.2x    frame= 2916 fps=565 q=-0.0 size=N/A time=00:01:37.29 bitrate=N/A speed=18.9x    frame= 3166 fps=559 q=-0.0 size=N/A time=00:01:45.63 bitrate=N/A speed=18.6x    frame= 3391 fps=548 q=-0.0 size=N/A time=00:01:53.14 bitrate=N/A speed=18.3x    frame= 3606 fps=538 q=-0.0 size=N/A time=00:02:00.32 bitrate=N/A speed=  18x    frame= 3816 fps=528 q=-0.0 size=N/A time=00:02:07.32 bitrate=N/A speed=17.6x    frame= 4040 fps=522 q=-0.0 size=N/A time=00:02:14.80 bitrate=N/A speed=17.4x    frame= 4267 fps=517 q=-0.0 size=N/A time=00:02:22.37 bitrate=N/A speed=17.2x    frame= 4492 fps=513 q=-0.0 size=N/A time=00:02:29.88 bitrate=N/A speed=17.1x    frame= 4801 fps=517 q=-0.0 size=N/A time=00:02:40.19 bitrate=N/A speed=17.3x    frame= 5250 fps=536 q=-0.0 size=N/A time=00:02:55.17 bitrate=N/A speed=17.9x    frame= 5513 fps=535 q=-0.0 size=N/A time=00:03:03.95 bitrate=N/A speed=17.9x    frame= 5772 fps=533 q=-0.0 size=N/A time=00:03:12.59 bitrate=N/A speed=17.8x    frame= 6029 fps=532 q=-0.0 size=N/A time=00:03:21.16 bitrate=N/A speed=17.7x    frame= 6281 fps=529 q=-0.0 size=N/A time=00:03:29.57 bitrate=N/A speed=17.7x    frame= 6651 fps=538 q=-0.0 size=N/A time=00:03:41.92 bitrate=N/A speed=17.9x    frame= 6902 fps=535 q=-0.0 size=N/A time=00:03:50.29 bitrate=N/A speed=17.9x    frame= 7167 fps=535 q=-0.0 size=N/A time=00:03:59.13 bitrate=N/A speed=17.8x    frame= 7445 fps=535 q=-0.0 size=N/A time=00:04:08.41 bitrate=N/A speed=17.9x    frame= 7819 fps=542 q=-0.0 size=N/A time=00:04:20.89 bitrate=N/A speed=18.1x    frame= 8165 fps=546 q=-0.0 size=N/A time=00:04:32.43 bitrate=N/A speed=18.2x    frame= 8451 fps=547 q=-0.0 size=N/A time=00:04:41.98 bitrate=N/A speed=18.2x    frame= 8754 fps=548 q=-0.0 size=N/A time=00:04:52.09 bitrate=N/A speed=18.3x    frame= 9029 fps=547 q=-0.0 size=N/A time=00:05:01.26 bitrate=N/A speed=18.3x    frame= 9269 fps=545 q=-0.0 size=N/A time=00:05:09.27 bitrate=N/A speed=18.2x    frame= 9528 fps=543 q=-0.0 size=N/A time=00:05:17.91 bitrate=N/A speed=18.1x    frame= 9809 fps=544 q=-0.0 size=N/A time=00:05:27.29 bitrate=N/A speed=18.1x    frame=10111 fps=545 q=-0.0 size=N/A time=00:05:37.37 bitrate=N/A speed=18.2x    frame=10433 fps=547 q=-0.0 size=N/A time=00:05:48.11 bitrate=N/A speed=18.2x    frame=10836 fps=553 q=-0.0 size=N/A time=00:06:01.56 bitrate=N/A speed=18.5x    frame=11211 fps=558 q=-0.0 size=N/A time=00:06:14.07 bitrate=N/A speed=18.6x    frame=11600 fps=562 q=-0.0 size=N/A time=00:06:27.05 bitrate=N/A speed=18.8x    frame=11917 fps=564 q=-0.0 size=N/A time=00:06:37.63 bitrate=N/A speed=18.8x    frame=12216 fps=564 q=-0.0 size=N/A time=00:06:47.60 bitrate=N/A speed=18.8x    frame=12529 fps=565 q=-0.0 size=N/A time=00:06:58.05 bitrate=N/A speed=18.9x    frame=12891 fps=568 q=-0.0 size=N/A time=00:07:10.12 bitrate=N/A speed=  19x    frame=13196 fps=569 q=-0.0 size=N/A time=00:07:20.30 bitrate=N/A speed=  19x    frame=13552 fps=571 q=-0.0 size=N/A time=00:07:32.18 bitrate=N/A speed=19.1x    frame=13857 fps=572 q=-0.0 size=N/A time=00:07:42.36 bitrate=N/A speed=19.1x    frame=14284 fps=577 q=-0.0 size=N/A time=00:07:56.60 bitrate=N/A speed=19.3x    frame=14720 fps=583 q=-0.0 size=N/A time=00:08:11.15 bitrate=N/A speed=19.4x    frame=15157 fps=588 q=-0.0 size=N/A time=00:08:25.73 bitrate=N/A speed=19.6x    frame=15580 fps=593 q=-0.0 size=N/A time=00:08:39.85 bitrate=N/A speed=19.8x    frame=15967 fps=595 q=-0.0 size=N/A time=00:08:52.76 bitrate=N/A speed=19.9x    frame=16317 fps=597 q=-0.0 size=N/A time=00:09:04.44 bitrate=N/A speed=19.9x    frame=16764 fps=602 q=-0.0 size=N/A time=00:09:19.35 bitrate=N/A speed=20.1x    frame=17267 fps=609 q=-0.0 size=N/A time=00:09:36.14 bitrate=N/A speed=20.3x    frame=17736 fps=614 q=-0.0 size=N/A time=00:09:51.79 bitrate=N/A speed=20.5x    frame=18218 fps=620 q=-0.0 size=N/A time=00:10:07.87 bitrate=N/A speed=20.7x    frame=18725 fps=626 q=-0.0 size=N/A time=00:10:24.79 bitrate=N/A speed=20.9x    frame=19189 fps=631 q=-0.0 size=N/A time=00:10:40.27 bitrate=N/A speed=  21x    frame=19712 fps=637 q=-0.0 size=N/A time=00:10:57.72 bitrate=N/A speed=21.3x    frame=20177 fps=641 q=-0.0 size=N/A time=00:11:13.23 bitrate=N/A speed=21.4x    frame=20646 fps=646 q=-0.0 size=N/A time=00:11:28.88 bitrate=N/A speed=21.5x    frame=20980 fps=646 q=-0.0 size=N/A time=00:11:40.03 bitrate=N/A speed=21.6x    frame=21495 fps=651 q=-0.0 size=N/A time=00:11:57.21 bitrate=N/A speed=21.7x    frame=21962 fps=655 q=-0.0 size=N/A time=00:12:12.79 bitrate=N/A speed=21.9x    frame=22442 fps=660 q=-0.0 size=N/A time=00:12:28.81 bitrate=N/A speed=  22x    frame=22996 fps=666 q=-0.0 size=N/A time=00:12:47.29 bitrate=N/A speed=22.2x    frame=23553 fps=672 q=-0.0 size=N/A time=00:13:05.88 bitrate=N/A speed=22.4x    frame=24024 fps=675 q=-0.0 size=N/A time=00:13:21.60 bitrate=N/A speed=22.5x    frame=24513 fps=679 q=-0.0 size=N/A time=00:13:37.91 bitrate=N/A speed=22.7x    frame=25095 fps=685 q=-0.0 size=N/A time=00:13:57.33 bitrate=N/A speed=22.9x    frame=25652 fps=691 q=-0.0 size=N/A time=00:14:15.92 bitrate=N/A speed=23.1x    frame=26150 fps=695 q=-0.0 size=N/A time=00:14:32.53 bitrate=N/A speed=23.2x    frame=26713 fps=700 q=-0.0 size=N/A time=00:14:51.32 bitrate=N/A speed=23.4x    frame=27263 fps=705 q=-0.0 size=N/A time=00:15:09.67 bitrate=N/A speed=23.5x    frame=27728 fps=708 q=-0.0 size=N/A time=00:15:25.19 bitrate=N/A speed=23.6x    frame=28300 fps=713 q=-0.0 size=N/A time=00:15:44.27 bitrate=N/A speed=23.8x    frame=28883 fps=718 q=-0.0 size=N/A time=00:16:03.72 bitrate=N/A speed=  24x    frame=29471 fps=723 q=-0.0 size=N/A time=00:16:23.34 bitrate=N/A speed=24.1x    frame=30024 fps=728 q=-0.0 size=N/A time=00:16:41.80 bitrate=N/A speed=24.3x    frame=30534 fps=731 q=-0.0 size=N/A time=00:16:58.81 bitrate=N/A speed=24.4x    frame=31065 fps=735 q=-0.0 size=N/A time=00:17:16.53 bitrate=N/A speed=24.5x    frame=31547 fps=737 q=-0.0 size=N/A time=00:17:32.61 bitrate=N/A speed=24.6x    frame=31987 fps=739 q=-0.0 size=N/A time=00:17:47.29 bitrate=N/A speed=24.6x    frame=32337 fps=738 q=-0.0 size=N/A time=00:17:58.97 bitrate=N/A speed=24.6x    frame=32889 fps=742 q=-0.0 size=N/A time=00:18:17.39 bitrate=N/A speed=24.7x    frame=33423 fps=745 q=-0.0 size=N/A time=00:18:35.21 bitrate=N/A speed=24.9x    frame=33767 fps=744 q=-0.0 size=N/A time=00:18:46.69 bitrate=N/A speed=24.8x    frame=34283 fps=747 q=-0.0 size=N/A time=00:19:03.90 bitrate=N/A speed=24.9x    frame=34788 fps=750 q=-0.0 size=N/A time=00:19:20.75 bitrate=N/A speed=  25x    frame=35232 fps=751 q=-0.0 size=N/A time=00:19:35.57 bitrate=N/A speed=25.1x    frame=35752 fps=754 q=-0.0 size=N/A time=00:19:52.92 bitrate=N/A speed=25.1x    frame=36220 fps=755 q=-0.0 size=N/A time=00:20:08.54 bitrate=N/A speed=25.2x    frame=36837 fps=760 q=-0.0 size=N/A time=00:20:29.12 bitrate=N/A speed=25.4x    frame=37256 fps=761 q=-0.0 size=N/A time=00:20:43.10 bitrate=N/A speed=25.4x    frame=37758 fps=763 q=-0.0 size=N/A time=00:20:59.85 bitrate=N/A speed=25.5x    frame=38356 fps=767 q=-0.0 size=N/A time=00:21:19.81 bitrate=N/A speed=25.6x    frame=38899 fps=770 q=-0.0 size=N/A time=00:21:37.92 bitrate=N/A speed=25.7x    frame=39388 fps=772 q=-0.0 size=N/A time=00:21:54.24 bitrate=N/A speed=25.7x    frame=39773 fps=771 q=-0.0 size=N/A time=00:22:07.09 bitrate=N/A speed=25.7x    frame=40113 fps=770 q=-0.0 size=N/A time=00:22:18.43 bitrate=N/A speed=25.7x    frame=40347 fps=767 q=-0.0 size=N/A time=00:22:26.24 bitrate=N/A speed=25.6x    frame=40690 fps=766 q=-0.0 size=N/A time=00:22:37.68 bitrate=N/A speed=25.6x    frame=41009 fps=765 q=-0.0 size=N/A time=00:22:48.33 bitrate=N/A speed=25.5x    frame=41456 fps=766 q=-0.0 size=N/A time=00:23:03.24 bitrate=N/A speed=25.5x    frame=41850 fps=766 q=-0.0 size=N/A time=00:23:16.39 bitrate=N/A speed=25.5x    frame=42306 fps=767 q=-0.0 size=N/A time=00:23:31.61 bitrate=N/A speed=25.6x    frame=42742 fps=767 q=-0.0 size=N/A time=00:23:46.15 bitrate=N/A speed=25.6x    [Parsed_ssim_10 @ 000001f61d4468c0] SSIM Y:0.984887 (18.206357) U:0.982482 (17.565056) V:0.986071 (18.560701) All:0.984683 (18.148281)
[out#0/null @ 000001f61ae24300] video:18541KiB audio:269984KiB subtitle:0KiB other streams:0KiB global headers:0KiB muxing overhead: unknown
frame=43150 fps=770 q=-0.0 Lsize=N/A time=00:23:59.77 bitrate=N/A speed=25.7x    
